<?xml version="1.0" standalone="no"?>
<!DOCTYPE svg PUBLIC "-//W3C//DTD SVG 20010904//EN"
 "http://www.w3.org/TR/2001/REC-SVG-20010904/DTD/svg10.dtd">
<svg version="1.0" xmlns="http://www.w3.org/2000/svg"
 width="300.000000pt" height="234.000000pt" viewBox="0 0 300.000000 234.000000"
 preserveAspectRatio="xMidYMid meet">
<metadata>
Created by potrace 1.10, written by Peter Selinger 2001-2011
</metadata>
<g transform="translate(0.000000,234.000000) scale(0.100000,-0.100000)"
fill="#000000" stroke="none">
<path d="M1455 2258 l-100 -29 0 -100 c0 -80 3 -100 15 -103 8 -3 51 -12 95
-21 44 -9 88 -19 98 -22 16 -4 17 7 17 141 0 80 3 146 8 146 4 0 47 -11 95
-24 48 -12 86 -18 84 -13 -4 12 -162 57 -192 56 -11 -1 -65 -15 -120 -31z m93
-122 c1 -55 -1 -103 -6 -108 -13 -13 -125 12 -143 33 -20 22 -19 104 2 137 7
12 23 22 34 22 11 0 26 4 33 9 7 4 28 8 45 7 l32 -1 3 -99z"/>
<path d="M1193 2012 l-103 -26 0 -121 0 -120 104 0 c97 0 105 2 110 20 9 31 7
275 -1 274 -5 -1 -54 -13 -110 -27z m79 -51 c9 -64 1 -183 -13 -192 -8 -5 -41
-8 -74 -7 l-60 3 0 95 0 94 45 18 c25 9 57 17 71 17 22 1 27 -4 31 -28z"/>
<path d="M607 2012 c-22 -24 -21 -45 1 -65 15 -14 40 -17 119 -17 l101 0 16
-47 c8 -27 38 -131 66 -233 77 -279 63 -250 121 -250 47 0 50 2 44 21 -9 29
-65 223 -65 226 0 2 257 3 570 3 l570 0 -6 -27 c-4 -16 -11 -38 -15 -51 -15
-38 -11 -42 39 -42 l48 0 17 64 c38 144 35 146 -212 146 -126 0 -190 -3 -186
-10 4 -6 75 -10 179 -10 151 0 177 -2 195 -17 21 -18 21 -19 6 -78 -15 -55
-27 -74 -49 -75 -5 0 -6 20 -3 45 8 56 -9 75 -66 76 -23 0 -273 1 -556 0 -616
0 -564 13 -526 -131 28 -102 27 -127 -3 -111 -13 7 -35 71 -82 242 -46 166
-71 240 -88 260 -23 28 -27 29 -117 29 -90 0 -120 9 -98 31 5 5 53 9 107 10
139 1 154 -11 200 -171 13 -44 29 -87 36 -95 14 -17 110 -21 110 -5 0 6 -22
10 -48 10 l-49 0 -29 107 c-45 164 -69 183 -232 183 -83 0 -102 -3 -115 -18z"/>
<path d="M1700 1981 l-115 -37 -3 -99 -3 -100 121 -2 120 -2 6 26 c4 14 4 70
1 124 -3 55 -2 99 1 99 4 0 56 -13 115 -28 59 -16 110 -25 113 -21 2 4 -1 11
-6 14 -11 7 -220 65 -230 64 -3 0 -57 -17 -120 -38z m86 -19 c16 -10 18 -156
2 -182 -11 -17 -23 -20 -80 -20 -97 0 -98 1 -98 80 0 77 3 82 81 109 60 22 79
24 95 13z"/>
<path d="M1315 1730 c4 -6 57 -10 125 -10 68 0 121 4 125 10 4 6 -40 10 -125
10 -85 0 -129 -4 -125 -10z"/>
<path d="M2301 1550 l3 -55 -362 0 -362 0 43 -42 42 -42 413 -3 c226 -2 412
-1 412 2 0 3 -43 48 -96 100 l-95 95 2 -55z m66 -62 c44 -50 57 -48 -316 -48
-230 0 -351 4 -351 11 0 6 102 9 295 8 l296 -1 22 25 c27 32 29 32 54 5z"/>
<path d="M1480 1416 l0 -58 -360 4 c-198 1 -359 0 -358 -3 2 -3 21 -22 44 -42
l41 -36 411 -3 412 -3 -93 95 c-50 52 -93 96 -94 99 -2 2 -3 -22 -3 -53z m68
-66 c13 -11 21 -24 18 -29 -8 -12 -669 -11 -688 0 -7 5 122 9 287 9 286 0 300
1 319 20 25 25 35 25 64 0z"/>
<path d="M2051 1279 c-14 -55 -34 -102 -48 -120 l-25 -29 -388 0 -388 0 -30
25 c-17 14 -33 39 -37 55 -6 29 -9 30 -60 30 l-53 0 14 -41 c14 -40 14 -41
-17 -72 -88 -88 -86 -205 4 -254 29 -17 71 -18 505 -18 461 0 474 1 488 20 8
11 13 26 12 35 -8 37 -39 40 -493 40 -242 0 -448 0 -457 0 -42 0 -42 56 -1
107 l18 23 45 -23 c44 -22 50 -22 445 -22 510 0 487 -8 551 206 18 63 34 117
34 122 0 4 -21 7 -48 7 l-47 0 -24 -91z m79 54 c-1 -40 -47 -183 -68 -211 -48
-62 -51 -62 -479 -62 -368 0 -390 1 -433 21 -55 25 -82 14 -112 -44 -16 -33
-18 -44 -8 -67 6 -15 23 -32 36 -39 17 -8 161 -11 474 -11 443 0 448 0 443
-20 -5 -20 -14 -20 -460 -20 -488 0 -491 0 -527 52 -28 39 -20 87 26 158 24
37 43 77 43 94 1 33 17 44 34 24 6 -7 23 -28 38 -47 47 -59 52 -59 448 -55
198 1 369 3 381 4 40 0 78 52 103 143 12 47 28 88 35 91 21 8 26 6 26 -11z"/>
<path d="M1113 816 c-34 -15 -63 -61 -63 -98 0 -13 9 -37 20 -55 43 -71 149
-63 185 14 43 90 -49 180 -142 139z m76 -65 c40 -40 -8 -97 -55 -66 -30 19
-31 49 -2 69 29 20 34 20 57 -3z"/>
<path d="M1783 810 c-39 -23 -53 -48 -53 -93 0 -41 28 -80 69 -97 39 -16 76
-6 112 30 53 52 34 136 -37 166 -44 18 -53 18 -91 -6z m81 -56 c43 -42 -10
-109 -54 -69 -25 23 -25 40 0 65 24 24 34 25 54 4z"/>
<path d="M610 500 c-7 -14 -8 -26 0 -40 8 -16 23 -20 81 -22 l71 -3 -81 -99
c-121 -145 -108 -176 71 -176 133 0 175 20 148 71 -9 16 -22 19 -91 19 l-81 0
31 38 c17 20 56 70 88 110 51 66 55 75 45 97 -11 25 -13 25 -141 25 -120 0
-131 -2 -141 -20z m240 -33 c0 -12 -21 -44 -46 -72 -66 -73 -99 -132 -84 -150
12 -14 65 -31 87 -27 6 2 14 -2 17 -7 4 -5 -31 -9 -86 -8 -76 2 -93 5 -96 18
-2 14 65 107 111 153 9 10 17 20 18 24 0 4 2 15 4 25 5 25 -33 47 -80 47 -77
0 -16 16 70 18 82 2 85 1 85 -21z"/>
<path d="M908 409 c-29 -16 -21 -49 32 -137 43 -72 50 -90 50 -136 0 -58 12
-76 50 -76 38 0 50 18 50 76 0 46 6 63 50 131 51 80 61 121 36 143 -32 26 -60
8 -97 -64 l-37 -70 -27 55 c-44 87 -65 103 -107 78z m82 -91 c0 -15 35 -48 50
-48 22 1 52 30 75 73 20 37 45 50 45 22 0 -8 -4 -15 -10 -15 -5 0 -10 -9 -10
-20 0 -11 -4 -20 -8 -20 -4 0 -20 -25 -35 -55 -26 -50 -33 -75 -36 -130 -1
-13 -8 -21 -20 -21 -15 0 -20 10 -25 50 -3 29 -22 82 -46 128 -43 82 -45 124
-3 72 12 -16 23 -32 23 -36z"/>
<path d="M1222 408 c-22 -22 -13 -58 35 -140 37 -65 46 -90 44 -120 -3 -49 21
-88 54 -88 33 0 55 36 55 89 0 37 10 61 51 128 56 92 60 122 17 137 -35 12
-51 -2 -90 -78 l-30 -60 -30 59 c-40 81 -74 105 -106 73z m58 -50 c11 -12 20
-28 20 -36 0 -17 39 -51 59 -52 15 0 61 45 61 61 0 15 28 41 40 37 5 -2 -1
-23 -15 -48 -52 -96 -65 -126 -65 -156 0 -30 -23 -74 -34 -63 -3 3 -9 28 -12
55 -4 28 -20 73 -40 107 -19 32 -34 63 -34 68 0 5 -4 9 -10 9 -5 0 -10 9 -10
20 0 26 14 25 40 -2z"/>
<path d="M2015 401 c-25 -29 -19 -243 8 -285 45 -67 164 -84 232 -32 55 42 60
58 59 190 -1 103 -4 121 -20 133 -25 18 -41 16 -64 -7 -18 -18 -20 -33 -20
-128 0 -117 -6 -132 -50 -132 -49 0 -60 25 -60 143 0 83 -3 109 -16 121 -21
22 -47 20 -69 -3z m54 -63 c-1 -7 -1 -47 0 -89 1 -64 5 -80 24 -102 12 -15 28
-27 35 -27 7 0 12 -4 12 -10 0 -5 5 -10 11 -10 5 0 7 5 4 10 -4 6 6 10 22 10
20 0 34 9 51 33 19 29 22 45 21 119 -2 93 5 120 25 93 6 -9 11 -28 10 -43 0
-15 -2 -58 -2 -95 -2 -64 -4 -71 -37 -104 -19 -19 -39 -32 -45 -28 -5 3 -10 1
-10 -4 0 -32 -120 12 -141 51 -16 31 -21 207 -5 223 9 10 13 10 19 -1 4 -8 7
-20 6 -26z"/>
<path d="M2357 402 c-10 -10 -17 -24 -17 -31 0 -7 23 -50 50 -96 43 -71 50
-90 50 -134 0 -38 5 -56 20 -71 24 -24 29 -24 58 -4 18 12 22 25 22 66 0 43 8
63 50 133 52 85 61 124 35 145 -31 25 -63 3 -99 -67 l-33 -67 -28 54 c-46 92
-74 110 -108 72z m63 -61 c0 -6 5 -11 10 -11 6 0 10 -4 10 -10 0 -14 38 -50
53 -50 20 1 42 23 67 68 22 39 40 54 40 33 0 -13 -23 -76 -30 -81 -21 -17 -55
-93 -59 -135 -4 -35 -10 -50 -21 -50 -11 0 -17 16 -21 56 -4 36 -15 69 -33 95
-14 21 -26 43 -26 48 0 5 -7 17 -15 26 -9 10 -13 24 -9 33 5 14 8 14 20 2 8
-7 14 -18 14 -24z"/>
<path d="M2734 406 c-50 -22 -77 -64 -71 -110 7 -51 20 -62 107 -94 80 -30 95
-46 57 -63 -19 -9 -34 -7 -77 12 -61 26 -85 19 -85 -27 0 -56 116 -91 199 -60
53 20 79 56 79 109 0 52 -25 75 -110 102 -42 14 -69 28 -71 38 -5 25 41 32 79
13 41 -21 52 -20 73 3 52 57 -88 117 -180 77z m76 -28 c0 -4 11 -8 25 -8 14 0
25 -4 25 -10 0 -12 2 -12 -38 -1 -27 8 -36 6 -59 -13 -25 -21 -26 -26 -15 -50
6 -15 20 -29 29 -32 47 -16 109 -48 120 -63 31 -40 2 -91 -62 -109 -49 -14
-75 -12 -75 3 0 8 -10 10 -25 7 -15 -2 -25 0 -25 7 0 6 14 11 30 11 17 0 30
-4 30 -10 0 -15 63 0 85 21 18 18 19 22 5 46 -8 14 -22 29 -30 33 -8 4 -25 12
-37 18 -13 7 -30 12 -38 12 -20 0 -51 29 -58 55 -8 24 17 58 55 78 30 15 58
18 58 5z"/>
<path d="M67 392 c-14 -15 -17 -42 -17 -153 0 -182 -2 -179 139 -179 117 0
136 7 129 52 -3 22 -8 23 -85 26 l-83 3 0 29 c0 29 0 29 68 32 62 3 67 5 70
27 5 36 -12 45 -78 43 l-60 -3 0 31 0 30 68 0 c82 0 108 14 98 53 l-6 27 -114
0 c-97 0 -115 -3 -129 -18z m98 -12 c-3 6 1 10 10 10 9 0 13 -4 10 -10 -3 -5
1 -10 9 -10 26 0 18 -15 -9 -16 -56 -4 -74 -58 -33 -101 l22 -23 -23 -16 c-29
-21 -26 -74 6 -90 13 -6 20 -14 16 -17 -3 -4 5 -7 19 -7 15 0 28 5 30 12 3 7
7 6 11 -5 7 -19 1 -20 -72 -18 -73 2 -80 15 -80 145 1 97 3 114 21 133 16 17
25 20 45 12 16 -6 22 -6 18 1z"/>
<path d="M367 403 c-11 -11 -8 -48 5 -61 7 -7 39 -12 75 -12 35 0 63 -2 63 -5
0 -3 -36 -48 -80 -100 -79 -94 -94 -127 -68 -153 8 -8 54 -12 139 -12 136 0
154 6 147 52 -3 21 -8 23 -80 26 -43 2 -78 5 -78 8 0 2 36 49 80 105 118 148
113 159 -70 159 -70 0 -130 -3 -133 -7z m236 -35 c9 -13 -2 -31 -56 -95 -37
-43 -70 -88 -73 -101 -7 -23 10 -52 30 -52 6 0 12 -8 12 -18 0 -19 -46 -29
-69 -15 -7 4 -21 7 -32 8 -15 0 -19 6 -17 25 1 13 6 27 10 30 4 3 26 28 47 55
22 28 42 52 45 55 3 3 12 18 20 34 14 26 13 29 -8 47 -13 10 -21 24 -17 31 4
7 1 6 -7 -3 -13 -16 -38 -15 -38 2 0 4 6 6 14 3 8 -3 17 -1 20 4 10 17 108 9
119 -10z"/>
<path d="M1682 398 c-8 -8 -12 -58 -12 -159 0 -183 -3 -179 121 -179 126 0
179 32 179 107 0 33 -28 73 -52 73 -7 1 -3 9 10 20 27 22 38 70 23 99 -21 38
-63 51 -164 51 -59 0 -97 -4 -105 -12z m82 -19 l25 -12 -24 -19 c-29 -23 -32
-49 -8 -88 15 -26 15 -29 0 -45 -23 -23 -21 -64 5 -92 l21 -23 -24 -8 c-17 -7
-28 -4 -41 8 -16 15 -19 35 -20 134 -1 99 2 119 17 136 21 24 18 23 49 9z
m111 -9 c4 -6 11 -8 16 -5 5 4 14 -5 21 -19 9 -20 8 -35 -2 -67 -11 -32 -11
-44 -2 -57 34 -47 36 -62 15 -90 -11 -15 -30 -28 -42 -30 -24 -4 -28 10 -6 28
22 18 18 60 -7 87 -20 21 -20 24 -5 41 20 22 22 63 5 80 -14 14 -19 42 -8 42
5 0 12 -5 15 -10z m-34 -40 c23 -13 25 -46 3 -54 -9 -3 -29 -6 -45 -6 -27 0
-29 3 -29 35 0 31 3 35 26 35 14 0 34 -5 45 -10z m13 -133 c10 -7 17 -22 14
-33 -2 -15 -14 -20 -51 -24 l-47 -6 0 38 c0 36 1 38 33 38 18 0 41 -6 51 -13z"/>
</g>
</svg>
